HIERARCHY
ROOT Hips
{
  OFFSET -69.4423 88.0299 51.6846
  CHANNELS 6 Xposition Yposition Zposition Zrotation Xrotation Yrotation
  JOINT Spine
  {
    OFFSET 12.0259 -0.162853 1.93176e-005
    CHANNELS 3 Zrotation Xrotation Yrotation
    JOINT Spine1
    {
      OFFSET 15.3169 -0.0121909 0
      CHANNELS 3 Zrotation Xrotation Yrotation
      JOINT Spine2
      {
        OFFSET 15.3176 -0.0121922 0
        CHANNELS 3 Zrotation Xrotation Yrotation
        JOINT Neck
        {
          OFFSET 19.9142 1.56236 0
          CHANNELS 3 Zrotation Xrotation Yrotation
          JOINT Head
          {
            OFFSET 6.92646 0 0
            CHANNELS 3 Zrotation Xrotation Yrotation
            End Site
            {
              OFFSET 20.7666 0 0
            }
          }
          JOINT LeftShoulder
          {
            OFFSET -4.94072 -1.14703 8.14416
            CHANNELS 3 Zrotation Xrotation Yrotation
            JOINT LeftArm
            {
              OFFSET 14.108 0 -2.74767e-005
              CHANNELS 3 Zrotation Xrotation Yrotation
              JOINT LeftForeArm
              {
                OFFSET 28.5802 -0.0783412 -0.0284884
                CHANNELS 3 Zrotation Xrotation Yrotation
                JOINT LeftHand
                {
                  OFFSET 27.092 0 0
                  CHANNELS 3 Zrotation Xrotation Yrotation
                  End Site
                  {
                    OFFSET 9.55928 -0.186424 0.145352
                  }
                }
              }
            }
          }
          JOINT RightShoulder
          {
            OFFSET -7.15748 -1.33027 -6.24935
            CHANNELS 3 Zrotation Xrotation Yrotation
            JOINT RightArm
            {
              OFFSET 14.108 0 1.82997e-005
              CHANNELS 3 Zrotation Xrotation Yrotation
              JOINT RightForeArm
              {
                OFFSET 28.5802 -0.0707221 2.30684e-005
                CHANNELS 3 Zrotation Xrotation Yrotation
                JOINT RightHand
                {
                  OFFSET 27.092 0 -1.30073e-005
                  CHANNELS 3 Zrotation Xrotation Yrotation
                  End Site
                  {
                    OFFSET 9.55929 -0.186417 -0.145354
                  }
                }
              }
            }
          }
        }
      }
    }
  }
  JOINT LeftUpLeg
  {
    OFFSET 0.00499725 -0.534999 8.837
    CHANNELS 3 Zrotation Xrotation Yrotation
    JOINT LeftLeg
    {
      OFFSET 39.9035 -0.00124594 0.000252775
      CHANNELS 3 Zrotation Xrotation Yrotation
      JOINT LeftFoot
      {
        OFFSET 39.6689 0 0
        CHANNELS 3 Zrotation Xrotation Yrotation
        JOINT LeftToe
        {
          OFFSET 10.1624 13.6296 0
          CHANNELS 3 Zrotation Xrotation Yrotation
          End Site
          {
            OFFSET 8.38147 0 0
          }
        }
      }
    }
  }
  JOINT RightUpLeg
  {
    OFFSET 0.00499725 -0.535 -8.837
    CHANNELS 3 Zrotation Xrotation Yrotation
    JOINT RightLeg
    {
      OFFSET 39.9036 -0.000268477 0.000106433
      CHANNELS 3 Zrotation Xrotation Yrotation
      JOINT RightFoot
      {
        OFFSET 39.6689 1.17892e-005 0
        CHANNELS 3 Zrotation Xrotation Yrotation
        JOINT RightToe
        {
          OFFSET 10.1624 13.6296 0
          CHANNELS 3 Zrotation Xrotation Yrotation
          End Site
          {
            OFFSET 8.38147 0 0
          }
        }
      }
    }
  }
}
MOTION
Frames:	16
Frame Time:	0.0333333
86.2114 88.4203 -53.3533 101.958 72.8638 -10.716 0.152441 -0.4808 0.581659 0.309769 -0.959481 1.16483 0.309765 -0.959488 1.16482 -13.8989 -4.69337 -13.3395 39.1971 -6.62771 14.3712 -168.908 -6.64724 -95.5052 -29.3838 3.81288 86.6074 -20.8818 2.02347 -13.8155 4.63123 -82.9216 7.35666 -168.859 -8.66377 72.6113 -20.0566 -4.10566 -84.666 -22.48 -2.64962 14.0362 2.95486 81.6749 -2.84561 -7.47441 -4.34733 -178.789 -22.5719 0.997185 -1.1652 5.4029 3.67579 0.669753 90 7.15625e-015 -0 -10.7206 -1.60311 -174.653 -31.5785 -0.576701 0.189933 8.1155 5.43108 -0.787894 90 7.15625e-015 -3.18055e-015 
86.1106 88.4223 -53.3399 101.993 73.0949 -10.5437 0.159666 -0.504666 0.546415 0.324172 -1.00735 1.09448 0.324169 -1.00735 1.09447 -13.7274 -4.11492 -13.1578 40.2623 -5.34571 14.0851 -168.936 -6.01394 -95.4689 -29.1306 3.79052 86.67 -21.0496 2.05603 -13.9037 4.24562 -82.2806 6.99978 -168.883 -8.02097 72.6581 -20.1593 -4.10176 -84.6055 -22.5527 -2.66406 14.0721 2.95006 81.701 -2.82933 -7.34912 -4.43992 -178.858 -22.4448 0.992491 -1.162 5.40527 3.98444 0.67287 90 -7.95139e-015 -3.18055e-015 -10.7288 -1.6458 -174.779 -31.788 -0.572502 0.192314 7.67536 6.02627 -0.693316 90 -2.22639e-014 -1.90833e-014 
85.9573 88.3642 -53.3495 101.895 73.1712 -10.3957 0.147015 -0.479159 0.528535 0.298479 -0.956466 1.05852 0.298465 -0.956462 1.05851 -14.2111 -3.41401 -12.8426 42.6306 -4.20233 13.2839 -168.284 -5.34137 -95.2065 -28.8236 3.76442 86.6759 -20.1781 1.9109 -13.4391 4.99216 -80.2766 7.33465 -168.251 -7.33555 72.8625 -20.6771 -4.3175 -84.7603 -22.8666 -2.72618 14.2375 3.15813 82.7007 -3.03936 -7.64166 -4.31095 -178.799 -23.0929 0.993485 -1.13343 5.54376 4.19707 0.678681 90 1.74931e-014 1.27222e-014 -10.6695 -2.08366 -174.868 -31.8505 -0.572789 0.185544 7.82855 5.66228 -0.730868 90 -9.54166e-015 2.22639e-014 
85.7909 88.3445 -53.4238 101.729 73.6896 -10.4483 0.202581 -0.492997 0.592483 0.410283 -0.983435 1.18694 0.410277 -0.983449 1.18692 -14.5944 -2.91308 -12.4919 44.6338 -3.63425 12.3243 -167.771 -4.80696 -94.959 -28.8281 3.66135 86.7572 -20.4637 1.95533 -13.6003 4.95226 -80.4252 7.28909 -167.751 -6.81691 73.1365 -20.797 -4.54608 -84.7101 -23.2719 -2.81927 14.4634 3.33538 83.1209 -3.22629 -8.52118 -3.71181 -178.35 -24.76 0.994602 -1.06323 5.8693 5.32466 0.704162 90 -2.14687e-014 -1.27222e-014 -10.3779 -2.19974 -174.494 -31.5513 -0.584497 0.180322 8.30433 5.59015 -0.809297 90 -6.36111e-015 -0 
85.6505 88.3536 -53.4826 101.656 74.552 -10.4867 0.288292 -0.56256 0.607636 0.582603 -1.12156 1.21836 0.582595 -1.12156 1.21835 -14.8182 -2.45459 -12.094 46.1268 -3.00925 11.5473 -167.427 -4.27894 -94.6745 -29.0603 3.61543 86.6766 -20.8576 2.01749 -13.8136 4.62656 -80.829 7.04907 -167.403 -6.31361 73.4452 -20.3932 -4.26107 -84.6845 -23.2333 -2.80954 14.4316 3.30174 82.9489 -3.13184 -9.7307 -3.77906 -178.232 -26.8921 0.991027 -0.989053 5.7232 5.89611 0.712485 90 -2.38542e-015 -3.18055e-015 -10.039 -2.39405 -174.221 -31.2672 -0.594927 0.176833 7.58589 6.66531 -0.650627 90 2.06736e-014 1.27222e-014 
85.491 88.366 -53.4819 101.595 75.706 -10.853 0.346023 -0.634448 0.706692 0.699928 -1.26411 1.41749 0.699929 -1.26411 1.41749 -14.5136 -2.23358 -11.9457 47.2482 -2.69615 11.0728 -167.675 -3.95119 -94.6389 -28.5491 3.53207 86.8013 -21.3142 2.09738 -14.0714 3.94014 -80.4924 6.40279 -167.657 -6.00365 73.5253 -20.6042 -4.74868 -84.7171 -23.644 -2.90058 14.6577 3.26372 83.1092 -3.13184 -11.8377 -3.11613 -177.706 -30.5789 0.971229 -0.866096 5.2802 6.82861 0.722008 90 7.95139e-016 -6.36111e-015 -9.25565 -2.75575 -173.635 -30.4602 -0.62044 0.170968 7.59819 7.31856 -0.625942 90 1.51076e-014 9.54166e-015 
85.281 88.4366 -53.4179 100.664 76.5506 -10.453 0.495685 -0.66181 0.825186 1.00096 -1.31591 1.65641 1.00095 -1.31592 1.65639 -14.3235 -2.08285 -11.9969 47.7671 -2.40793 10.904 -167.807 -3.7421 -94.7227 -27.9125 2.59732 86.6443 -21.2725 2.10933 -14.0924 4.11684 -81.0721 6.70293 -167.82 -5.87663 73.4144 -20.498 -4.90545 -84.5465 -23.6893 -2.90985 14.6777 3.0944 82.7347 -2.9568 -14.3629 -2.2538 -177.169 -35.1046 0.927568 -0.73643 4.97576 6.62073 0.684356 90 -7.15625e-015 3.18055e-015 -8.12947 -3.03354 -172.994 -29.2625 -0.650932 0.159313 6.97908 7.68373 -0.486696 90 1.19271e-014 3.18055e-015 
85.079 88.5304 -53.3036 99.6996 76.9525 -9.89616 0.625051 -0.501389 0.89402 1.25792 -0.992423 1.79372 1.25791 -0.992426 1.7937 -13.9892 -2.26904 -11.8875 47.8706 -2.81028 10.8249 -168.16 -3.81711 -94.6328 -27.5118 2.27104 86.7404 -21.7778 2.19507 -14.385 6.61011 -82.3247 8.94072 -168.165 -5.98962 73.53 -20.0246 -4.97511 -84.5378 -23.4605 -2.85955 14.5535 3.01439 82.4671 -2.86088 -16.8854 -1.42076 -176.749 -38.9376 0.87117 -0.65037 4.93062 5.51644 0.610496 90 7.95139e-016 -3.18055e-015 -7.06151 -3.53824 -172.569 -28.0602 -0.678805 0.153201 6.66339 7.48889 -0.426521 90 -1.66979e-014 -9.54166e-015 
84.8877 88.652 -53.1562 99.8287 77.0366 -10.1252 0.695762 -0.336971 0.928302 1.39694 -0.662118 1.86083 1.39694 -0.662124 1.86082 -13.9962 -2.33559 -12.2065 48.2912 -2.65322 11.2995 -168.212 -3.98351 -94.9584 -26.1368 2.10511 87.1371 -22.4197 2.31583 -14.7482 6.97856 -82.338 9.19405 -168.194 -6.1623 73.2281 -19.5112 -4.93981 -84.3744 -22.9473 -2.74699 14.2807 2.79232 81.7913 -2.63805 -19.3364 -0.719034 -176.676 -40.9499 0.82027 -0.634134 5.35012 4.85406 0.563832 90 -1.19271e-014 1.90833e-014 -6.40929 -3.53944 -172.333 -26.9595 -0.700506 0.152117 6.19645 7.6843 -0.322916 90 -1.11319e-014 -1.90833e-014 
84.7303 88.7634 -52.853 99.6887 76.8869 -9.73359 0.76591 -0.0925789 0.82259 1.53307 -0.173645 1.64649 1.53307 -0.173643 1.64649 -13.7418 -2.53846 -11.9634 48.2882 -2.88126 11.4883 -168.484 -4.08857 -94.7231 -25.2361 2.08969 86.8895 -22.9434 2.41725 -15.0258 6.38616 -82.1453 8.63528 -168.451 -6.28004 73.4984 -19.0692 -4.98132 -84.6457 -22.4887 -2.6461 14.029 2.59866 81.1527 -2.44695 -21.1174 0.0498712 -176.948 -40.679 0.799352 -0.695876 4.96906 3.81717 0.548684 90 1.19271e-014 9.54166e-015 -5.81043 -3.14892 -172.442 -26.1625 -0.715702 0.155768 6.08497 7.72487 -0.297959 90 -1.19271e-014 -1.27222e-014 
84.5297 88.8037 -52.4879 99.9376 76.8303 -9.81919 0.828821 0.0629185 0.758706 1.65675 0.137289 1.51659 1.65674 0.137279 1.51658 -13.6894 -2.61222 -12.0002 48.2426 -2.91758 11.6718 -168.573 -4.19962 -94.7853 -25.3396 2.88845 86.6379 -23.5158 2.50721 -15.2892 7.17092 -82.6498 9.31714 -168.508 -6.35085 73.487 -18.8843 -4.84521 -84.7937 -21.909 -2.52087 13.7114 2.50946 80.9141 -2.35369 -22.6709 0.495985 -177.119 -38.8515 0.786901 -0.811044 4.23376 2.63997 0.529395 90 -1.55052e-014 -1.90833e-014 -5.34718 -2.85488 -172.422 -25.5318 -0.728248 0.161834 6.09734 7.9684 -0.293248 90 -2.3059e-014 -2.22639e-014 
84.3167 88.7472 -51.9848 99.8935 76.8487 -9.8038 0.923943 0.192027 0.753863 1.84522 0.396761 1.52102 1.84521 0.396769 1.52101 -13.6019 -2.70788 -12.0956 47.8203 -3.12236 11.7198 -168.688 -4.32224 -94.8594 -24.5151 3.1171 86.6409 -23.4856 2.51231 -15.2657 6.36264 -82.36 8.60668 -168.614 -6.44973 73.4037 -18.4708 -4.81699 -84.8163 -21.6991 -2.47214 13.5849 2.2944 80.3676 -2.12155 -23.6579 0.289652 -177.281 -35.7746 0.780868 -0.957842 3.19721 1.70561 0.490001 90 3.18055e-015 -6.36111e-015 -4.79197 -2.65721 -172.264 -25.1805 -0.739116 0.165523 6.31837 8.11136 -0.338686 90 -7.95139e-015 -1.59028e-014 
84.0425 88.7503 -51.3885 99.8983 77.0365 -9.87478 1.01079 0.223736 0.764093 2.01855 0.46138 1.52431 2.01854 0.461384 1.52429 -13.6554 -2.58431 -12.0504 47.8439 -2.89816 11.6132 -168.602 -4.223 -94.8125 -23.7548 3.32421 86.3395 -23.1068 2.45347 -15.052 5.54812 -82.1425 7.90014 -168.534 -6.33587 73.4336 -19.2635 -5.12807 -85.0103 -21.8964 -2.51056 13.6893 2.43448 80.8825 -2.26661 -24.5693 -0.0620368 -177.349 -31.9387 0.766494 -1.11572 1.84796 1.96842 0.509498 90 -2.5842e-015 1.59028e-015 -3.81593 -2.53994 -172.036 -24.2143 -0.752224 0.173429 6.18071 8.30135 -0.308471 90 5.56597e-015 -0 
83.68 88.8284 -50.7227 100.389 76.6885 -10.4174 1.06643 0.331468 0.793247 2.12825 0.678088 1.58038 2.12824 0.678082 1.58037 -13.304 -2.5891 -12.2165 47.2151 -2.91695 11.569 -168.942 -4.21637 -94.9505 -22.7849 3.34712 86.1578 -22.1652 2.3085 -14.5395 5.38848 -82.2954 7.99091 -168.902 -6.30441 73.2229 -19.5676 -5.22877 -84.9077 -22.1138 -2.55883 13.8114 2.43358 80.8956 -2.28371 -25.6527 -0.13014 -177.203 -27.7308 0.727531 -1.28993 1.37871 2.23258 0.574565 90 -2.69353e-014 6.36111e-015 -2.77266 -2.1588 -171.846 -22.7602 -0.768836 0.194281 5.96233 8.24531 -0.276143 90 9.54166e-015 9.54166e-015 
83.2384 88.8852 -49.9198 100.204 76.5226 -10.4343 1.16411 0.408562 0.836838 2.32223 0.834483 1.66541 2.32222 0.834484 1.6654 -13.569 -2.47768 -12.088 47.6926 -2.80076 11.3687 -168.633 -4.15813 -94.7632 -21.1797 3.36719 86.1076 -21.0175 2.11616 -13.9235 6.03738 -82.1152 8.36049 -168.603 -6.20468 73.32 -19.9252 -5.21219 -84.7676 -22.3803 -2.61234 13.9463 2.62746 81.4701 -2.45156 -26.4501 0.407638 -176.826 -24.6409 0.679777 -1.42111 1.1038 2.30755 0.619047 90 -9.36773e-015 -4.77083e-015 -1.19965 -2.01519 -171.518 -20.8926 -0.787296 0.219509 5.65444 8.04886 -0.233059 90 7.15625e-015 -6.36111e-015 
82.7875 88.8243 -49.0573 100.42 76.5403 -10.9459 1.22308 0.417695 0.915465 2.43953 0.852587 1.82209 2.43952 0.852582 1.82208 -13.472 -2.39861 -11.9283 47.6271 -2.79555 11.0363 -168.701 -4.0563 -94.6021 -20.3665 3.78806 86.1968 -20.2954 2.00212 -13.5162 6.16658 -81.5762 8.42497 -168.66 -6.0478 73.422 -19.6962 -5.02359 -84.5919 -22.3141 -2.6041 13.9204 2.53222 81.1547 -2.37428 -27.4208 0.552279 -176.546 -22.2022 0.623457 -1.5424 0.758776 0.659538 0.440218 90 -8.74653e-015 4.77083e-015 0.275617 -2.10236 -171.105 -19.2363 -0.806822 0.238841 5.73209 7.75076 -0.279351 90 -2.78299e-014 -1.59028e-014 
